<svg id="图层_1" data-name="图层 1" xmlns="http://www.w3.org/2000/svg" xmlns:xlink="http://www.w3.org/1999/xlink" viewBox="0 0 1000 1000"><defs><style>.cls-1{fill:none;}.cls-2{fill:url(#未命名的渐变_241);}.cls-3{fill:url(#未命名的渐变_236);}.cls-4{fill:url(#未命名的渐变_294);}.cls-5{fill:url(#未命名的渐变_251);}</style><linearGradient id="未命名的渐变_241" x1="502.38503" y1="837.29376" x2="621.33301" y2="162.70624" gradientUnits="userSpaceOnUse"><stop offset="0" stop-color="#409eff"/><stop offset="1" stop-color="#4fddfe"/></linearGradient><linearGradient id="未命名的渐变_236" x1="242.19153" y1="751.02238" x2="330.71556" y2="248.97762" gradientUnits="userSpaceOnUse"><stop offset="0" stop-color="#409eff"/><stop offset="1" stop-color="#9cecff"/></linearGradient><linearGradient id="未命名的渐变_294" x1="377.65208" y1="333.27515" x2="451.59782" y2="752.64233" gradientUnits="userSpaceOnUse"><stop offset="0.00056" stop-color="#4242ff"/><stop offset="1" stop-color="#0acffe"/></linearGradient><linearGradient id="未命名的渐变_251" x1="692.87168" y1="244.7035" x2="781.6925" y2="748.43143" gradientUnits="userSpaceOnUse"><stop offset="0" stop-color="#4242ff"/><stop offset="0.14742" stop-color="#3368ff"/><stop offset="0.32109" stop-color="#248dfe"/><stop offset="0.49513" stop-color="#19aafe"/><stop offset="0.66724" stop-color="#11befe"/><stop offset="0.83661" stop-color="#0ccbfe"/><stop offset="1" stop-color="#0acffe"/></linearGradient></defs><circle class="cls-1" cx="500" cy="500" r="500"/><path class="cls-2" d="M726.8055,238.33172a39.8397,39.8397,0,0,1,14.87523,2.9025c-15.337-43.04238-55.70782-73.81529-103.10393-73.81529-46.96733,0-87.04138,30.17924-102.64213,72.628-1.62136,4.41171-2.62469,7.84466-3.00154,9.26813-12.623,47.68439-56.73712,271.44109-97.23292,480.72277a39.5919,39.5919,0,0,1-53.66291,28.728c15.337,43.04238,55.70782,73.81529,103.10394,73.81529,46.96732,0,87.04138-30.17924,102.64213-72.628,1.62135-4.41171,2.62468-7.84446,3.00153-9.26813,12.623-47.68419,56.73692-271.44089,97.23292-480.72277A39.62536,39.62536,0,0,1,726.8055,238.33172Z"/><path class="cls-3" d="M394.47187,355.71722a39.59193,39.59193,0,0,1,53.66291-28.728c-15.337-43.04238-55.70782-73.81529-103.10394-73.81529-46.96732,0-87.04138,30.17925-102.64213,72.628-1.63866,4.45883-2.641,7.90284-3.00153,9.26813-12.83757,48.61485-39.719,192.18117-60.952,309.21276a39.59193,39.59193,0,0,1-53.66291,28.728c15.337,43.04238,55.70782,73.81529,103.10394,73.81529,46.96732,0,87.04138-30.17925,102.64213-72.628,1.63866-4.45862,2.64079-7.90224,3.00153-9.26813,12.83717-48.61082,39.6958-192.04347,60.91894-309.01487Z"/><path class="cls-4" d="M448.13481,326.98915a39.5919,39.5919,0,0,0-53.66291,28.728l-.033.19789c-14.91368,82.197-32.60444,177.41766-46.26274,243.66287l33.86121,159.1878a39.5919,39.5919,0,0,0,53.66291-28.728c15.61524-80.69929,31.767-163.54154,46.44512-237.62054Z"/><path class="cls-5" d="M860.35245,678.66728a39.62534,39.62534,0,0,1-38.78767-31.63044C799.27446,531.84,775.89151,412.2794,757.26493,320.096l-15.58409-78.86179a40.21478,40.21478,0,0,0-11.146-2.72157c-.06315-.00615-.12718-.00837-.19033-.01423-.54313-.04906-1.08789-.09264-1.638-.11925q-.94365-.04659-1.90095-.04751a39.62524,39.62524,0,0,0-38.78767,31.63044c-17.26713,89.23533-35.19035,181.09238-51.05119,260.81979,13.59213,66.90046,24.27043,117.09685,29.51345,136.90211.37681,1.42349,1.38,4.85643,3.00143,9.26816,15.60069,42.44867,55.67474,72.628,102.64223,72.628,47.39605,0,87.76671-30.77291,103.10384-73.81533A39.83915,39.83915,0,0,1,860.35245,678.66728Z"/></svg>